<?xml version="1.0" encoding="iso-8859-1"?>
<!-- Generator: Adobe Illustrator 19.0.0, SVG Export Plug-In . SVG Version: 6.00 Build 0)  -->
<svg version="1.1" id="Capa_1" xmlns="http://www.w3.org/2000/svg" xmlns:xlink="http://www.w3.org/1999/xlink" x="0px" y="0px"
	 viewBox="0 0 57.635 57.635" style="enable-background:new 0 0 57.635 57.635;" xml:space="preserve">
<path style="fill:#F0EDE0;" d="M31.62,3.536L16.417,18.738c-0.972,0.972-2.563,0.972-3.536,0l0,0c-0.972-0.972-0.972-2.563,0-3.536
	L28.084,0l0.414,0.828C29.139,2.109,30.261,3.083,31.62,3.536L31.62,3.536z"/>
<path style="fill:#556080;" d="M31.62,3.536L16.417,18.738c-0.851,0.851-2.177,0.957-3.146,0.318
	c-0.011,0.011-0.025,0.026-0.036,0.036l1.635,1.635c0.536-0.062,1.095,0.042,1.593,0.352l5.986,3.741
	c1.065,0.666,1.755,1.838,1.698,3.093c-0.033,0.725-0.195,1.251-0.441,1.648l4.281,4.281c0.451,0.451,0.926,0.616,1.445,0.685
	c1.241,0.164,2.385,0.768,3.118,1.783c0.393,0.544,0.693,1.072,0.603,1.325c0.943,0.124,1.358-0.22,1.947-0.81l0.763-0.763
	L50.004,21.92L31.62,3.536z"/>
<polygon style="fill:#8697CB;" points="33.741,12.728 30.206,16.263 27.377,13.435 24.561,16.251 27.377,19.092 23.842,22.627 
	26.67,25.456 30.206,21.92 37.31,28.958 40.105,26.163 33.034,19.092 36.569,15.556 "/>
<path style="fill:#FDD7AD;" d="M32.533,36.31c-0.733-1.014-1.877-1.619-3.118-1.783c-0.52-0.069-0.994-0.233-1.445-0.685
	l-4.281-4.281c0.101-0.164,0.186-0.354,0.254-0.569c0.035-0.108,0.065-0.224,0.091-0.347c0.014-0.068,0.032-0.129,0.042-0.202
	c0.026-0.164,0.044-0.34,0.053-0.53c0.002-0.047-0.004-0.094-0.004-0.141c0.001-0.049,0.01-0.087,0.01-0.138
	c0-0.036-0.015-0.069-0.017-0.105c-0.083-1.107-0.731-2.113-1.687-2.71l-2.042-1.276c-0.004-0.002-0.008-0.005-0.011-0.007
	l-1.65-1.031l-2.283-1.427c-0.139-0.087-0.285-0.154-0.432-0.21c-0.064-0.025-0.129-0.04-0.194-0.059
	c-0.078-0.022-0.156-0.043-0.236-0.057c-0.089-0.017-0.177-0.027-0.267-0.034c-0.048-0.003-0.095-0.004-0.143-0.004
	c-0.917-0.014-1.814,0.47-2.257,1.357l-3.938,7.877c-0.523,1.046-0.459,2.29,0.169,3.277l5.467,8.591
	c0.34,0.534,0.521,1.155,0.521,1.788v13.03h12v-9.604c0-0.855,0.323-1.672,0.914-2.29c1.468-1.538,4.268-2.926,5.086-7.106
	C33.226,37.382,32.926,36.854,32.533,36.31z"/>
<path style="fill:#FAC176;" d="M33.344,35.724c-0.87-1.203-2.218-1.98-3.798-2.188c-0.393-0.051-0.628-0.16-0.869-0.4l-3.784-3.784
	c0.13-0.397,0.208-0.846,0.233-1.345c0.001-0.016,0.001-0.032,0.002-0.048c0.001-0.018,0.001-0.036,0.002-0.053
	c0.003-0.088,0.005-0.179,0.005-0.27c0-0.278-0.039-0.547-0.109-0.806c-0.262-1.151-0.998-2.189-2.064-2.857l-5.985-3.741h0h0
	c-0.022-0.014-0.044-0.028-0.067-0.041c-0.001,0-0.001,0-0.001,0c-0.181-0.108-0.37-0.198-0.564-0.27
	c-0.685-0.253-1.439-0.289-2.151-0.087c-0.941,0.265-1.731,0.918-2.168,1.792l-3.938,7.876c-0.676,1.354-0.592,2.986,0.22,4.262
	l5.467,8.59c0.238,0.375,0.364,0.808,0.364,1.251v13.03c0,0.552,0.448,1,1,1h12c0.552,0,1-0.448,1-1v-9.604
	c0-0.601,0.227-1.169,0.637-1.6c0.292-0.305,0.669-0.627,1.069-0.968c1.501-1.28,3.555-3.03,4.266-6.59
	C34.295,37.177,33.854,36.43,33.344,35.724z M28.544,42.943c-0.439,0.375-0.855,0.729-1.218,1.109
	c-0.768,0.805-1.19,1.863-1.19,2.98v8.604h-10v-12.03c0-0.824-0.234-1.628-0.677-2.325l-5.467-8.591
	c-0.437-0.686-0.482-1.565-0.118-2.293l3.938-7.876c0.188-0.377,0.516-0.647,0.921-0.762c0.043-0.012,0.087-0.022,0.13-0.031
	c0.035,0,0.069-0.002,0.104-0.007c0.238-0.027,0.595-0.015,0.948,0.207l3.933,2.458c0.972,0.607,2.901,1.813,3.236,2.927
	c0.038,0.182,0.054,0.369,0.045,0.556c-0.022,0.497-0.121,0.89-0.292,1.167c-0.022,0.036-0.042,0.074-0.059,0.111
	c-0.319,0.395-0.857,0.488-1.644,0.488c-0.04,0-0.097,0.004-0.137,0.009c-0.073,0.008-1.829,0.195-4.228-1.781
	c-0.007-0.006-0.015-0.007-0.022-0.013c-0.065-0.049-0.133-0.085-0.207-0.117c-0.045-0.02-0.088-0.038-0.134-0.052
	c-0.059-0.016-0.115-0.025-0.176-0.03c-0.072-0.007-0.142-0.005-0.214,0.004c-0.04,0.005-0.079,0.01-0.119,0.02
	c-0.106,0.026-0.204,0.07-0.299,0.13c-0.007,0.005-0.015,0.005-0.022,0.01c-0.002,0.002-0.003,0.004-0.006,0.006
	c-0.023,0.016-0.05,0.022-0.072,0.04c-0.369,0.303-0.472,0.826-0.246,1.247c0.338,0.628,0.931,2.251,0.494,2.982
	c-0.269,0.45-1.025,0.544-1.613,0.544c-0.552,0-1,0.448-1,1s0.448,1,1,1c1.607,0,2.727-0.511,3.33-1.518
	c0.1-0.167,0.179-0.34,0.242-0.517l4.66,6.656c0.856,1.081-0.342,3.726-1.057,4.838c-0.298,0.464-0.165,1.083,0.3,1.382
	c0.167,0.108,0.355,0.16,0.541,0.16c0.328,0,0.649-0.162,0.84-0.458c0.304-0.471,2.916-4.673,0.979-7.116l-4.626-6.608
	c0.933,0.233,1.599,0.208,1.853,0.181c1.037-0.008,1.871-0.225,2.5-0.649l3.564,3.564c0.726,0.726,1.501,0.9,2.021,0.969
	c1.028,0.136,1.894,0.625,2.438,1.377c0.256,0.354,0.365,0.559,0.41,0.657C31.545,40.384,29.952,41.743,28.544,42.943z"/>
<g>
</g>
<g>
</g>
<g>
</g>
<g>
</g>
<g>
</g>
<g>
</g>
<g>
</g>
<g>
</g>
<g>
</g>
<g>
</g>
<g>
</g>
<g>
</g>
<g>
</g>
<g>
</g>
<g>
</g>
</svg>
